<svg width="24" height="18" viewBox="0 0 24 18" fill="none" xmlns="http://www.w3.org/2000/svg">
<path d="M14.1666 5.53331C14.1666 5.42498 14.2027 5.32116 14.2749 5.22185C14.3471 5.12255 14.4284 5.05484 14.5187 5.01873C15.0603 4.82012 15.6155 4.66665 16.1843 4.55831C16.753 4.44998 17.3444 4.39581 17.9583 4.39581C18.3555 4.39581 18.7437 4.41838 19.1228 4.46352C19.502 4.50866 19.8721 4.57637 20.2333 4.66665C20.3416 4.70276 20.4409 4.77047 20.5312 4.86977C20.6214 4.96908 20.6666 5.08192 20.6666 5.20831C20.6666 5.40692 20.5989 5.5604 20.4635 5.66873C20.328 5.77706 20.161 5.80415 19.9624 5.74998C19.6555 5.6597 19.335 5.59199 19.001 5.54685C18.6669 5.50172 18.3194 5.47915 17.9583 5.47915C17.4346 5.47915 16.9291 5.5288 16.4416 5.6281C15.9541 5.72741 15.4756 5.87637 15.0062 6.07498C14.7534 6.16526 14.5503 6.16074 14.3968 6.06144C14.2433 5.96213 14.1666 5.78609 14.1666 5.53331ZM14.1666 11.4916C14.1666 11.3833 14.2027 11.275 14.2749 11.1666C14.3471 11.0583 14.4284 10.9861 14.5187 10.95C15.0603 10.7514 15.6155 10.6024 16.1843 10.5031C16.753 10.4038 17.3444 10.3541 17.9583 10.3541C18.3555 10.3541 18.7437 10.3767 19.1228 10.4219C19.502 10.467 19.8721 10.5347 20.2333 10.625C20.3416 10.6611 20.4409 10.7288 20.5312 10.8281C20.6214 10.9274 20.6666 11.0403 20.6666 11.1666C20.6666 11.3653 20.5989 11.5187 20.4635 11.6271C20.328 11.7354 20.161 11.7625 19.9624 11.7083C19.6555 11.618 19.335 11.5503 19.001 11.5052C18.6669 11.46 18.3194 11.4375 17.9583 11.4375C17.4346 11.4375 16.9291 11.4826 16.4416 11.5729C15.9541 11.6632 15.4756 11.8076 15.0062 12.0062C14.7534 12.0965 14.5503 12.0965 14.3968 12.0062C14.2433 11.916 14.1666 11.7444 14.1666 11.4916ZM14.1666 8.51248C14.1666 8.40415 14.2027 8.30033 14.2749 8.20102C14.3471 8.10172 14.4284 8.03401 14.5187 7.9979C15.0603 7.79929 15.6155 7.64581 16.1843 7.53748C16.753 7.42915 17.3444 7.37498 17.9583 7.37498C18.3555 7.37498 18.7437 7.39755 19.1228 7.44269C19.502 7.48783 19.8721 7.55554 20.2333 7.64581C20.3416 7.68192 20.4409 7.74963 20.5312 7.84894C20.6214 7.94824 20.6666 8.06109 20.6666 8.18748C20.6666 8.38609 20.5989 8.53956 20.4635 8.6479C20.328 8.75623 20.161 8.78331 19.9624 8.72915C19.6555 8.63887 19.335 8.57116 19.001 8.52602C18.6669 8.48088 18.3194 8.45831 17.9583 8.45831C17.4346 8.45831 16.9291 8.50797 16.4416 8.60727C15.9541 8.70658 15.4756 8.85554 15.0062 9.05415C14.7534 9.14442 14.5503 9.13991 14.3968 9.04061C14.2433 8.9413 14.1666 8.76526 14.1666 8.51248ZM5.71659 13.875C6.69159 13.875 7.63499 13.9878 8.54679 14.2135C9.4586 14.4392 10.3569 14.7778 11.2416 15.2291V3.66456C10.4291 3.1229 9.54888 2.7031 8.60096 2.40519C7.65304 2.10727 6.69159 1.95831 5.71659 1.95831C5.03047 1.95831 4.3579 2.04408 3.69888 2.2156C3.03985 2.38713 2.37631 2.59929 1.70825 2.85206V14.6062C2.26797 14.3535 2.90443 14.1684 3.61763 14.051C4.33082 13.9337 5.03047 13.875 5.71659 13.875ZM12.8666 15.2291C13.7694 14.7778 14.6541 14.4392 15.5208 14.2135C16.3874 13.9878 17.3083 13.875 18.2833 13.875C18.9694 13.875 19.678 13.9291 20.4093 14.0375C21.1405 14.1458 21.768 14.2903 22.2916 14.4708V2.85206C21.6777 2.54512 21.0277 2.31942 20.3416 2.17498C19.6555 2.03054 18.9694 1.95831 18.2833 1.95831C17.3083 1.95831 16.3648 2.10727 15.453 2.40519C14.5412 2.7031 13.6791 3.1229 12.8666 3.66456V15.2291ZM12.0541 17.3687C11.9096 17.3687 11.7787 17.3552 11.6614 17.3281C11.544 17.301 11.4402 17.2514 11.3499 17.1791C10.5013 16.6555 9.59853 16.2493 8.64159 15.9604C7.68464 15.6715 6.70964 15.5271 5.71659 15.5271C5.04853 15.5271 4.39853 15.6083 3.76659 15.7708C3.13464 15.9333 2.5027 16.1319 1.87075 16.3666C1.45547 16.5653 1.05374 16.5382 0.665544 16.2854C0.277349 16.0326 0.083252 15.6715 0.083252 15.2021V2.66248C0.083252 2.39165 0.146446 2.14338 0.272835 1.91769C0.399224 1.69199 0.588808 1.51595 0.841585 1.38956C1.59992 1.02845 2.38985 0.762133 3.21138 0.590605C4.0329 0.419077 4.86797 0.333313 5.71659 0.333313C6.85409 0.333313 7.95999 0.486785 9.03429 0.79373C10.1086 1.10067 11.1152 1.57012 12.0541 2.20206C12.9749 1.57012 13.9635 1.10067 15.0197 0.79373C16.076 0.486785 17.1638 0.333313 18.2833 0.333313C19.1319 0.333313 19.9624 0.419077 20.7749 0.590605C21.5874 0.762133 22.3728 1.02845 23.1312 1.38956C23.3839 1.51595 23.578 1.69199 23.7135 1.91769C23.8489 2.14338 23.9166 2.39165 23.9166 2.66248V15.2021C23.9166 15.7076 23.7135 16.0913 23.3072 16.3531C22.901 16.6149 22.4992 16.6194 22.102 16.3666C21.4881 16.1139 20.8652 15.9107 20.2333 15.7573C19.6013 15.6038 18.9513 15.5271 18.2833 15.5271C17.3083 15.5271 16.3513 15.6715 15.4124 15.9604C14.4735 16.2493 13.5888 16.6555 12.7583 17.1791C12.668 17.2514 12.5642 17.301 12.4468 17.3281C12.3294 17.3552 12.1985 17.3687 12.0541 17.3687Z" fill="#B472E8"/>
</svg>
