<svg width="24" height="22" viewBox="0 0 24 22" fill="none" xmlns="http://www.w3.org/2000/svg">
<path d="M13.3812 21.8333C12.9659 21.8333 12.6635 21.6979 12.4739 21.427C12.2843 21.1562 12.2617 20.8222 12.4062 20.425L16.3874 9.86246C16.4958 9.57357 16.6944 9.32982 16.9833 9.13121C17.2721 8.9326 17.5701 8.83329 17.877 8.83329C18.1839 8.83329 18.4864 8.9326 18.7843 9.13121C19.0822 9.32982 19.2853 9.57357 19.3937 9.86246L23.4562 20.3166C23.6187 20.7319 23.6006 21.0885 23.402 21.3864C23.2034 21.6843 22.8694 21.8333 22.3999 21.8333C22.2013 21.8333 22.0117 21.7701 21.8312 21.6437C21.6506 21.5173 21.5242 21.3548 21.452 21.1562L20.5583 18.4208H15.3583L14.3291 21.1833C14.2569 21.3638 14.1305 21.5173 13.9499 21.6437C13.7694 21.7701 13.5798 21.8333 13.3812 21.8333ZM15.9541 16.525H19.7999L17.9041 11.2708H17.8499L15.9541 16.525ZM6.827 7.26246C7.09784 7.7319 7.39575 8.18781 7.72075 8.63017C8.04575 9.07253 8.39783 9.52843 8.777 9.99788C9.5895 9.14926 10.2666 8.26906 10.8083 7.35725C11.3499 6.44544 11.8103 5.49301 12.1895 4.49996H1.16659C0.859641 4.49996 0.602349 4.39614 0.39471 4.1885C0.187071 3.98086 0.083252 3.72357 0.083252 3.41663C0.083252 3.10968 0.187071 2.85239 0.39471 2.64475C0.602349 2.43711 0.859641 2.33329 1.16659 2.33329H7.66659V1.24996C7.66659 0.943015 7.77041 0.685723 7.97804 0.478084C8.18568 0.270445 8.44297 0.166626 8.74992 0.166626C9.05686 0.166626 9.31415 0.270445 9.52179 0.478084C9.72943 0.685723 9.83325 0.943015 9.83325 1.24996V2.33329H16.3333C16.6402 2.33329 16.8975 2.43711 17.1051 2.64475C17.3128 2.85239 17.4166 3.10968 17.4166 3.41663C17.4166 3.72357 17.3128 3.98086 17.1051 4.1885C16.8975 4.39614 16.6402 4.49996 16.3333 4.49996H14.3562C13.9589 5.74579 13.4308 6.96906 12.7718 8.16975C12.1128 9.37044 11.3048 10.5125 10.3478 11.5958L13.002 14.277L12.1895 16.4708L8.74992 13.1666L4.0645 17.852C3.86589 18.0507 3.62214 18.15 3.33325 18.15C3.04436 18.15 2.80061 18.0416 2.602 17.825C2.38534 17.6263 2.277 17.3826 2.277 17.0937C2.277 16.8048 2.38534 16.552 2.602 16.3354L7.36867 11.5687C6.89922 11.009 6.45686 10.4447 6.04159 9.876C5.62631 9.30725 5.24714 8.72496 4.90409 8.12913C4.68742 7.7319 4.66936 7.38885 4.84992 7.09996C5.03047 6.81107 5.35547 6.66663 5.82492 6.66663C6.02353 6.66663 6.21763 6.72531 6.40721 6.84267C6.59679 6.96003 6.73672 7.09996 6.827 7.26246Z" fill="#B472E8"/>
</svg>
