<svg width="202" height="36" viewBox="0 0 202 36" fill="none" xmlns="http://www.w3.org/2000/svg">
<path d="M35.144 35H27.416L26.84 21.992C26.68 18.888 26.6 16.12 26.6 13.688C26.6 11.832 26.648 10.072 26.744 8.40804L21.608 31.496H14.168L8.69598 8.40804C8.88799 11.192 8.98398 13.816 8.98398 16.28C8.98398 18.136 8.93598 20.072 8.83998 22.088L8.26398 35H0.583984L3.07998 1.73604H13.016L18.008 24.296L22.664 1.73604H32.648L35.144 35Z" fill="#141414"/>
<path d="M57.3744 35L55.6464 27.848H45.9504L44.2704 35H36.1104L46.1424 1.73604H55.6944L65.7264 35H57.3744ZM47.2944 22.136H54.3024L50.7984 7.44805L47.2944 22.136Z" fill="#141414"/>
<path d="M79.1109 22.28H76.0389V35H68.1669V1.73604H79.0629C83.6069 1.73604 87.0149 2.56804 89.2869 4.23204C91.5909 5.89604 92.7429 8.44004 92.7429 11.864C92.7429 14.008 92.2309 15.8 91.2069 17.24C90.1829 18.648 88.5669 19.848 86.3589 20.84L94.8069 35H85.9269L79.1109 22.28ZM76.0389 16.856H79.3509C81.1109 16.856 82.4229 16.456 83.2869 15.656C84.1829 14.856 84.6309 13.592 84.6309 11.864C84.6309 10.264 84.1509 9.09605 83.1909 8.36005C82.2629 7.62405 80.8229 7.25605 78.8709 7.25605H76.0389V16.856Z" fill="#141414"/>
<path d="M110.766 0.920044C112.846 0.920044 114.686 1.22404 116.286 1.83204C117.918 2.44004 119.454 3.35204 120.894 4.56805L117.15 9.03205C116.158 8.26405 115.182 7.68805 114.222 7.30404C113.262 6.92004 112.238 6.72804 111.15 6.72804C108.91 6.72804 107.134 7.67204 105.822 9.56004C104.542 11.448 103.902 14.36 103.902 18.296C103.902 22.168 104.542 25.048 105.822 26.936C107.134 28.792 108.942 29.72 111.246 29.72C112.462 29.72 113.566 29.496 114.558 29.048C115.55 28.568 116.622 27.896 117.774 27.032L121.278 31.544C120.03 32.792 118.51 33.816 116.718 34.616C114.958 35.416 113.006 35.816 110.862 35.816C107.79 35.816 105.118 35.144 102.846 33.8C100.574 32.456 98.7985 30.472 97.5185 27.848C96.2705 25.192 95.6465 22.008 95.6465 18.296C95.6465 14.68 96.2865 11.56 97.5665 8.93604C98.8785 6.31205 100.67 4.32804 102.942 2.98404C105.246 1.60804 107.854 0.920044 110.766 0.920044Z" fill="#141414"/>
<path d="M145.192 1.73604L144.376 7.35204H132.664V15.32H142.888V20.84H132.664V29.336H145.192V35H124.792V1.73604H145.192Z" fill="#141414"/>
<path d="M157.929 1.73604V28.76H170.889L170.073 35H150.057V1.73604H157.929Z" fill="#141414"/>
<path d="M186.091 0.920044C190.827 0.920044 194.507 2.44004 197.131 5.48005C199.787 8.52004 201.115 12.808 201.115 18.344C201.115 21.96 200.507 25.08 199.291 27.704C198.107 30.328 196.379 32.344 194.107 33.752C191.867 35.128 189.195 35.816 186.091 35.816C182.987 35.816 180.315 35.128 178.075 33.752C175.835 32.376 174.107 30.392 172.891 27.8C171.707 25.176 171.115 22.024 171.115 18.344C171.115 14.76 171.707 11.656 172.891 9.03205C174.107 6.40804 175.835 4.40804 178.075 3.03205C180.315 1.62404 182.987 0.920044 186.091 0.920044ZM186.091 6.68004C183.819 6.68004 182.123 7.60804 181.003 9.46405C179.915 11.288 179.371 14.248 179.371 18.344C179.371 22.44 179.931 25.416 181.051 27.272C182.171 29.128 183.851 30.056 186.091 30.056C188.395 30.056 190.091 29.144 191.179 27.32C192.299 25.464 192.859 22.472 192.859 18.344C192.859 14.216 192.299 11.24 191.179 9.41604C190.059 7.59204 188.363 6.68004 186.091 6.68004Z" fill="#141414"/>
</svg>
